<svg width="37" height="39" viewBox="0 0 37 39" fill="none" xmlns="http://www.w3.org/2000/svg">
<path fill-rule="evenodd" clip-rule="evenodd" d="M18.5 38.5C17.3953 38.4999 16.454 38.6044 16.4542 37.5L16.4542 7.02781L4.31208 19.17C3 21 2.2647 19.951 1.48366 19.17C0.702613 18.3889 -0.499997 18 1.48366 16.3415L17.04 0.78519C17.415 0.410141 17.9238 0.19937 18.4543 0.199286C18.9846 0.199484 19.4933 0.410116 19.8684 0.785193L35.4248 16.3416C37 18 36.2057 18.3891 35.4248 19.17C34.6439 19.9509 34 21 32.5964 19.17L20.4542 7.02784L20.4542 37.5002C20.4541 38.6046 19.6044 38.4998 18.5 38.5Z" fill="white"/>
</svg>
