<svg width="32" height="32" viewBox="0 0 32 32" fill="none" xmlns="http://www.w3.org/2000/svg">
<rect width="32" height="32" rx="16" fill="#222233"/>
<path fill-rule="evenodd" clip-rule="evenodd" d="M12.3825 9.29546C12.4624 9.11411 12.6419 8.99707 12.84 8.99707H20.5C20.7761 8.99707 21 9.22093 21 9.49707V13.4998C21 13.7759 20.7761 13.9998 20.5 13.9998H17.6352L20.5288 17.1623C20.6626 17.3085 20.6974 17.5199 20.6175 17.7013C20.5376 17.8827 20.3582 17.9998 20.16 17.9998H17V21.4998C17 21.702 16.8782 21.8843 16.6913 21.9617C16.5045 22.0391 16.2895 21.9964 16.1465 21.8534L12.1465 17.8533C12.0527 17.7596 12 17.6324 12 17.4998V13.4998C12 13.2236 12.2239 12.9998 12.5 12.9998H15.3653L12.4711 9.83447C12.3373 9.68823 12.3026 9.4768 12.3825 9.29546ZM16.7203 12.9998L13.9747 9.99707H20V12.9998H16.7203ZM16.2798 13.9998H13V16.9998H16.5H19.0247L16.2798 13.9998ZM13.7071 17.9998L16 20.2927V17.9998H13.7071Z" fill="white"/>
</svg>
