<svg width="32" height="32" viewBox="0 0 32 32" fill="none" xmlns="http://www.w3.org/2000/svg">
<rect width="32" height="32" rx="16" fill="#222233"/>
<path fill-rule="evenodd" clip-rule="evenodd" d="M16.2335 12.6961C16.2335 10.9686 17.6335 9.56836 19.3601 9.56836C20.3737 9.56836 21.1831 10.0478 21.7255 10.7436C22.308 10.6245 22.8558 10.4089 23.3514 10.1149C23.156 10.7258 22.7425 11.2394 22.2034 11.5644C22.2039 11.5655 22.2043 11.5665 22.2048 11.5676C22.7335 11.5034 23.2365 11.3628 23.7049 11.1552L23.7038 11.1569C23.3668 11.6616 22.9432 12.1071 22.4562 12.4701C22.4824 12.6465 22.4957 12.8241 22.4957 13.0006C22.4957 16.6869 19.6874 20.9744 14.5213 20.9744C12.9392 20.9744 11.4656 20.5108 10.2252 19.715C9.99275 19.5659 9.92523 19.2566 10.0744 19.0242C10.0875 19.0036 10.102 18.9844 10.1175 18.9664C10.2059 18.82 10.3745 18.7307 10.5555 18.752C11.4708 18.8599 12.3858 18.7483 13.1923 18.396C12.3924 18.0432 11.7714 17.3595 11.5022 16.5195C11.4537 16.3684 11.4885 16.2029 11.5936 16.084C11.5973 16.0799 11.601 16.0758 11.6048 16.0719C10.964 15.508 10.5599 14.6819 10.5599 13.7612V13.7274C10.5599 13.5679 10.6442 13.4204 10.7817 13.3395C10.8268 13.313 10.8755 13.2949 10.9254 13.2854C10.7056 12.8613 10.5813 12.3796 10.5813 11.8694C10.5813 11.4014 10.584 10.8117 10.9134 10.2806C10.9873 10.1615 11.1077 10.0889 11.2365 10.0717C11.426 10.0122 11.641 10.0695 11.7742 10.2328C12.8655 11.571 14.4408 12.4956 16.2338 12.7394L16.2335 12.6961ZM14.5213 19.9744C13.734 19.9744 12.9779 19.8433 12.2726 19.6021C13.1302 19.4536 13.9532 19.1157 14.6623 18.56C14.8122 18.4425 14.8719 18.2433 14.8114 18.0627C14.7508 17.8821 14.5831 17.7592 14.3927 17.7559C13.6898 17.7434 13.0672 17.3969 12.6781 16.8682C12.8684 16.8528 13.0544 16.8202 13.2346 16.7715C13.4362 16.7169 13.5738 16.5309 13.5669 16.3222C13.56 16.1135 13.4104 15.937 13.2057 15.8959C12.4271 15.7396 11.799 15.1674 11.5618 14.4215C11.7627 14.47 11.9711 14.4989 12.1849 14.5059C12.3858 14.5125 12.5666 14.3851 12.6281 14.1938C12.6896 14.0026 12.6168 13.7937 12.4498 13.682C11.8654 13.2913 11.4813 12.6244 11.4813 11.8694C11.4813 11.7019 11.4836 11.5525 11.4937 11.417C12.8513 12.7989 14.7089 13.6891 16.776 13.7932C16.9324 13.801 17.0834 13.7352 17.1841 13.6153C17.2848 13.4954 17.3234 13.3353 17.2886 13.1826C17.2527 13.025 17.2335 12.8626 17.2335 12.6961C17.2335 11.5206 18.186 10.5684 19.3601 10.5684C20.5944 10.5684 21.4957 11.7119 21.4957 13.0006C21.4957 16.2569 19.0203 19.9744 14.5213 19.9744Z" fill="white"/>
</svg>
