<svg width="32" height="32" viewBox="0 0 32 32" fill="none" xmlns="http://www.w3.org/2000/svg">
<rect width="32" height="32" rx="16" fill="#222233"/>
<path fill-rule="evenodd" clip-rule="evenodd" d="M16.7114 8.79691C16.5774 8.73436 16.4226 8.73436 16.2886 8.79691L10.2886 11.5969C10.1125 11.6791 10 11.8557 10 12.05V18.95C10 19.1443 10.1125 19.3209 10.2886 19.4031L16.2886 22.2031C16.4226 22.2656 16.5774 22.2656 16.7114 22.2031L22.7114 19.4031C22.8875 19.3209 23 19.1443 23 18.95V12.05C23 11.8557 22.8875 11.6791 22.7114 11.5969L16.7114 8.79691ZM16.5 11.1567L14.9804 10.5109L16.5 9.80177L18.0196 10.5109L16.5 11.1567ZM16.6956 12.1602L19.2382 11.0796L21.2719 12.0287L16.5 14.0567L11.7281 12.0287L13.7618 11.0796L16.3044 12.1602C16.4294 12.2133 16.5706 12.2133 16.6956 12.1602ZM17 14.9308L22 12.8058V15.9297L20.0821 16.8119C19.7273 16.9751 19.5 17.3299 19.5 17.7204V19.7982L17 20.9649V14.9308ZM20.5 19.3316L22 18.6316V17.0304L20.5 17.7204V19.3316ZM16 14.9308V20.9649L13.5023 19.7993V17.7204C13.5023 17.3299 13.275 16.9751 12.9202 16.8119L11 15.9286V12.8058L16 14.9308ZM11 18.6316L12.5023 19.3326V17.7204L11 17.0293V18.6316Z" fill="white"/>
</svg>
