<svg width="15" height="15" viewBox="0 0 15 15" fill="none" xmlns="http://www.w3.org/2000/svg">
<path fill-rule="evenodd" clip-rule="evenodd" d="M1.84961 7.49998C1.84961 7.21321 1.87097 6.93143 1.91219 6.65615L9.56337 2.23875C9.86274 2.35627 10.1496 2.49861 10.4215 2.66322L3.77028 6.50332C3.73632 6.52183 3.70445 6.5449 3.67565 6.57238C3.59073 6.65308 3.54208 6.76286 3.53645 6.87658C3.53322 6.9418 3.54414 7.00831 3.57049 7.07137C3.5889 7.1157 3.61453 7.15742 3.64707 7.19458C3.67269 7.22396 3.70163 7.24941 3.733 7.27069L7.32496 9.83813L3.87195 11.8317C2.63567 10.7953 1.84961 9.23944 1.84961 7.49998ZM8.36806 10.2751C8.37645 10.2706 8.38472 10.2659 8.39285 10.2608L9.84054 9.42499C9.84669 9.42163 9.85277 9.41812 9.85878 9.41446L11.3097 8.57677C11.3651 8.54649 11.415 8.504 11.455 8.44995C11.603 8.25031 11.5612 7.96848 11.3616 7.82046L7.82742 5.20017L11.2157 3.24393C12.4009 4.27963 13.1496 5.80237 13.1496 7.49998C13.1496 7.83546 13.1203 8.16411 13.0643 8.48353L5.56838 12.8113C5.26101 12.6995 4.96609 12.5618 4.68625 12.4008L8.36806 10.2751ZM8.18112 9.34383L4.81622 6.93868L5.50881 6.53881L8.80567 8.98324L8.18112 9.34383ZM6.35838 6.04832L6.97785 5.69067L10.2747 8.13506L9.65523 8.49275L6.35838 6.04832ZM8.33143 1.91078L2.24226 5.42636C3.06904 3.33188 5.11127 1.84998 7.49961 1.84998C7.78221 1.84998 8.05996 1.87072 8.33143 1.91078ZM6.84647 13.1126C7.06077 13.1373 7.27871 13.15 7.49961 13.15C9.82423 13.15 11.8209 11.7461 12.6882 9.7399L6.84647 13.1126ZM7.49961 0.849976C3.82691 0.849976 0.849609 3.82728 0.849609 7.49998C0.849609 11.1727 3.82691 14.15 7.49961 14.15C11.1723 14.15 14.1496 11.1727 14.1496 7.49998C14.1496 3.82728 11.1723 0.849976 7.49961 0.849976Z" fill="white"/>
</svg>
