<svg width="15" height="15" viewBox="0 0 15 15" fill="none" xmlns="http://www.w3.org/2000/svg">
<path fill-rule="evenodd" clip-rule="evenodd" d="M6.9998 2.05005H5.5248C4.71018 2.05005 4.0498 2.71043 4.0498 3.52505C4.0498 4.33967 4.71018 5.00005 5.5248 5.00005H6.9998V2.05005ZM6.9998 1.05005H7.9998H9.4748C10.8418 1.05005 11.9498 2.15814 11.9498 3.52505C11.9498 4.33169 11.564 5.04821 10.9667 5.50005C11.564 5.9519 11.9498 6.66842 11.9498 7.47506C11.9498 8.84196 10.8418 9.95006 9.4748 9.95006C8.92211 9.95006 8.41173 9.7689 7.9998 9.46272V9.95006V11.4251C7.9998 12.792 6.8917 13.9001 5.5248 13.9001C4.15789 13.9001 3.0498 12.792 3.0498 11.4251C3.0498 10.6184 3.43568 9.9019 4.03292 9.45005C3.43568 8.9982 3.0498 8.28169 3.0498 7.47506C3.0498 6.66842 3.43569 5.9519 4.03294 5.50006C3.43569 5.04821 3.0498 4.33169 3.0498 3.52505C3.0498 2.15814 4.15789 1.05005 5.5248 1.05005H6.9998ZM7.9998 2.05005V5.00005H9.4748C10.2895 5.00005 10.9498 4.33967 10.9498 3.52505C10.9498 2.71043 10.2895 2.05005 9.4748 2.05005H7.9998ZM5.5248 8.95004H6.9998V7.47886V7.47506V7.47126V6.00006H5.5248C4.71018 6.00006 4.0498 6.66044 4.0498 7.47506C4.0498 8.28773 4.70702 8.9469 5.51895 8.95005L5.5248 8.95004ZM4.0498 11.4251C4.0498 10.6124 4.70702 9.95321 5.51895 9.95005L5.5248 9.95006H6.9998V11.4251C6.9998 12.2397 6.33942 12.9001 5.5248 12.9001C4.71018 12.9001 4.0498 12.2397 4.0498 11.4251ZM7.9998 7.47212C8.00139 6.65885 8.66116 6.00006 9.4748 6.00006C10.2895 6.00006 10.9498 6.66044 10.9498 7.47506C10.9498 8.28968 10.2895 8.95006 9.4748 8.95006C8.66116 8.95006 8.00139 8.29127 7.9998 7.478V7.47212Z" fill="white"/>
</svg>
