<svg width="15" height="15" viewBox="0 0 15 15" fill="none" xmlns="http://www.w3.org/2000/svg">
<g clip-path="url(#clip0_525_1837)">
<path fill-rule="evenodd" clip-rule="evenodd" d="M7.50039 1.80002C4.35237 1.80002 1.80039 4.352 1.80039 7.50002C1.80039 10.648 4.35237 13.2 7.50039 13.2C10.6484 13.2 13.2004 10.648 13.2004 7.50002C13.2004 4.352 10.6484 1.80002 7.50039 1.80002ZM0.900391 7.50002C0.900391 3.85494 3.85531 0.900024 7.50039 0.900024C11.1454 0.900024 14.1004 3.85494 14.1004 7.50002C14.1004 11.1451 11.1454 14.1 7.50039 14.1C3.85531 14.1 0.900391 11.1451 0.900391 7.50002Z" fill="white"/>
<path fill-rule="evenodd" clip-rule="evenodd" d="M13.5 7.89998H1.5V7.09998H13.5V7.89998Z" fill="white"/>
<path fill-rule="evenodd" clip-rule="evenodd" d="M7.10022 13.5V1.5H7.90022V13.5H7.10022ZM10.3753 7.49998C10.3753 5.32724 9.59395 3.17778 8.06214 1.75656L8.53824 1.24341C10.2399 2.82218 11.0753 5.17273 11.0753 7.49998C11.0753 9.82724 10.2399 12.1778 8.53824 13.7566L8.06214 13.2434C9.59395 11.8222 10.3753 9.67273 10.3753 7.49998ZM4 7.5C4 5.17611 4.80817 2.82678 6.45799 1.24719L6.94208 1.75281C5.45851 3.17323 4.7 5.32389 4.7 7.5C4.70001 9.67611 5.45853 11.8268 6.9421 13.2472L6.458 13.7528C4.80819 12.1732 4.00001 9.8239 4 7.5Z" fill="white"/>
<path fill-rule="evenodd" clip-rule="evenodd" d="M7.50027 3.95801C9.66959 3.95801 11.8756 4.35915 13.3709 5.19448C13.5397 5.28875 13.6001 5.50197 13.5058 5.67073C13.4116 5.83948 13.1983 5.89987 13.0296 5.8056C11.6797 5.05155 9.6083 4.65801 7.50027 4.65801C5.39223 4.65801 3.32083 5.05155 1.97095 5.8056C1.80219 5.89987 1.58897 5.83948 1.4947 5.67073C1.40044 5.50197 1.46082 5.28875 1.62958 5.19448C3.12497 4.35915 5.33094 3.95801 7.50027 3.95801ZM7.50027 10.85C9.66959 10.85 11.8756 10.4488 13.3709 9.6135C13.5397 9.51924 13.6001 9.30601 13.5058 9.13726C13.4116 8.9685 13.1983 8.90812 13.0296 9.00238C11.6797 9.75643 9.6083 10.15 7.50027 10.15C5.39223 10.15 3.32083 9.75643 1.97095 9.00239C1.80219 8.90812 1.58897 8.9685 1.4947 9.13726C1.40044 9.30601 1.46082 9.51924 1.62958 9.6135C3.12497 10.4488 5.33094 10.85 7.50027 10.85Z" fill="white"/>
</g>
<defs>
<clipPath id="clip0_525_1837">
<rect width="15" height="15" fill="white"/>
</clipPath>
</defs>
</svg>
