<svg width="15" height="15" viewBox="0 0 15 15" fill="none" xmlns="http://www.w3.org/2000/svg">
<path fill-rule="evenodd" clip-rule="evenodd" d="M7.50037 0.875C5.49834 0.875 3.87537 2.49797 3.87537 4.5C3.87537 6.15288 4.98161 7.54738 6.4941 7.98351C5.30007 8.12901 4.27594 8.55134 3.50444 9.31167C2.52253 10.2794 2.02539 11.72 2.02539 13.5999C2.02539 13.8623 2.23806 14.0749 2.50039 14.0749C2.76273 14.0749 2.97539 13.8623 2.97539 13.5999C2.97539 11.8799 3.42823 10.7206 4.17128 9.9883C4.91573 9.25463 6.02711 8.87499 7.50032 8.87499C8.97354 8.87499 10.085 9.25463 10.8295 9.98831C11.5725 10.7206 12.0254 11.8799 12.0254 13.5999C12.0254 13.8623 12.238 14.0749 12.5004 14.0749C12.7627 14.075 12.9754 13.8623 12.9754 13.6C12.9754 11.72 12.4782 10.2794 11.4963 9.31166C10.7248 8.55135 9.70062 8.12903 8.50662 7.98352C10.0191 7.5474 11.1254 6.15289 11.1254 4.5C11.1254 2.49797 9.5024 0.875 7.50037 0.875ZM4.82537 4.5C4.82537 3.02264 6.02301 1.825 7.50037 1.825C8.97773 1.825 10.1754 3.02264 10.1754 4.5C10.1754 5.97736 8.97773 7.175 7.50037 7.175C6.02301 7.175 4.82537 5.97736 4.82537 4.5Z" fill="white"/>
</svg>
