<svg width="15" height="15" viewBox="0 0 15 15" fill="none" xmlns="http://www.w3.org/2000/svg">
<g clip-path="url(#clip0_525_1816)">
<path fill-rule="evenodd" clip-rule="evenodd" d="M7.49979 0.876892C3.8421 0.876892 0.876953 3.84204 0.876953 7.49972C0.876953 11.1574 3.8421 14.1226 7.49979 14.1226C11.1575 14.1226 14.1226 11.1574 14.1226 7.49972C14.1226 3.84204 11.1575 0.876892 7.49979 0.876892ZM1.82696 7.49972C1.82696 4.36671 4.36677 1.82689 7.49979 1.82689C10.6328 1.82689 13.1726 4.36671 13.1726 7.49972C13.1726 10.6327 10.6328 13.1726 7.49979 13.1726C4.36677 13.1726 1.82696 10.6327 1.82696 7.49972ZM5.03735 9.21395C4.87937 8.98746 4.5677 8.93193 4.34121 9.08991C4.11472 9.24789 4.05919 9.55956 4.21717 9.78605C4.93914 10.8211 6.14021 11.5 7.49992 11.5C8.85962 11.5 10.0607 10.8211 10.7827 9.78605C10.9407 9.55956 10.8851 9.24789 10.6586 9.08991C10.4322 8.93193 10.1205 8.98746 9.96248 9.21395C9.41951 9.99238 8.51895 10.5 7.49992 10.5C6.48088 10.5 5.58032 9.99238 5.03735 9.21395ZM5.37491 6.84998C5.85816 6.84998 6.24991 6.45815 6.24991 5.97498C6.24991 5.4918 5.85816 5.09998 5.37491 5.09998C4.89167 5.09998 4.49991 5.4918 4.49991 5.97498C4.49991 6.45815 4.89167 6.84998 5.37491 6.84998ZM10.4999 5.97498C10.4999 6.45815 10.1082 6.84998 9.62491 6.84998C9.14167 6.84998 8.74991 6.45815 8.74991 5.97498C8.74991 5.4918 9.14167 5.09998 9.62491 5.09998C10.1082 5.09998 10.4999 5.4918 10.4999 5.97498Z" fill="white"/>
</g>
<defs>
<clipPath id="clip0_525_1816">
<rect width="15" height="15" fill="white"/>
</clipPath>
</defs>
</svg>
